<svg width="310" height="52" viewBox="143 304 310 52" version="1.1" xmlns="http://www.w3.org/2000/svg" xmlns:xlink="http://www.w3.org/1999/xlink" xml:space="preserve" xmlns:serif="http://www.serif.com/" style="fill-rule:evenodd;clip-rule:evenodd;stroke-linejoin:round;stroke-miterlimit:2;"><g><path d="M392.147,321.721c-0.043,1.495 -0.261,8.98 -6.988,17.337c-5.316,6.603 -8.968,8.183 -11.338,9.35c-3.973,1.957 -13.299,3.579 -17.761,-0.788c-4.15,-4.061 -4.888,-12.758 -0.311,-21.603c0.476,-0.92 -0.211,-0.738 -1.13,-1.22c-10.182,-5.342 -7.428,-12.216 -5,-14.027c2.039,-1.521 9.256,-4.699 17.548,1.486c1.579,1.178 2.641,-2.495 12.127,-4.33c6.806,-1.317 16.27,-0.574 11.928,7.261c-0.675,1.217 0.289,1.508 0.613,3.167c0.326,1.672 0.253,1.657 0.313,3.368Zm-27.226,4.904c4.608,-0.094 4.574,-0.264 9.126,-1.017c2.815,-0.466 11.018,-3.551 13.762,-6.658c0.921,-1.043 1.1,3.419 1.112,3.73c0.477,11.91 -15.403,30.286 -27.08,25.815c-1.78,-0.682 -3.811,-3.409 -4.248,-5.681c-1.427,-7.427 2.243,-13.617 3.142,-15.387c0.644,-1.267 1.022,-0.816 4.185,-0.802Zm-1.673,-1.653c-0.701,-0.153 -1.272,0.03 -0.851,-0.543c4.957,-6.757 5.409,-6.349 6.508,-7.61c0.998,-1.145 1.624,1.768 2.723,2.064c2.121,0.571 -1.026,-2.975 -1.018,-3.403c0.009,-0.514 4.156,-3.24 5.137,-3.791c7.246,-4.072 15.896,-4.35 13.589,1.363c-0.43,1.065 -0.783,0.453 -1.823,-0.045c-3.181,-1.524 -8.511,0.303 -8.819,1.074c-0.857,2.149 4.295,-2.654 8.063,1.883c0.756,0.91 -5.648,5.171 -10.351,6.864c-7.054,2.538 -10.214,2.207 -13.158,2.146Zm2.812,-11.582c-0.085,0.484 -0.041,0.5 -0.175,0.655c-7.441,5.695 -8.254,9.727 -9.355,9.554c-0.648,-0.102 -4.208,-1.881 -5.236,-3.356c-5.139,-7.37 1.441,-14.11 12.87,-8.06c0.159,0.084 0.097,0.162 1.897,1.207Z" style="fill:#cc4d27;fill-opacity:0.99;"/><path d="M420.374,309.74c-3.911,5.24 -3.295,5.574 -5.641,11.693c-3.368,8.783 -6.066,26.378 -20.985,30.152c-11.708,2.962 -8.39,-6.92 -5.789,-7.313c5.275,-0.798 3.879,7.499 -0.216,4.974c-2.369,-1.461 0.017,0.656 0.064,0.686c3.125,1.994 8.79,-1.855 10.899,-4.493c4.18,-5.227 4.458,-5.449 9.506,-16.239c0.444,-0.948 5,-10.686 5.711,-11.775c3.199,-4.905 2.829,-5.189 6.93,-9.372c1.502,-1.532 3.02,-2.156 1.416,-2.319c-1.323,-0.135 -8.959,-0.911 -16.512,1.92c-4.083,1.53 -11.418,7.209 -8.051,10.561c2.25,2.239 9.137,0.706 13.781,-3.688c0.403,-0.381 1.565,-0.141 0.491,0.969c-8.816,9.113 -26.353,4.791 -15.599,-5.517c1.378,-1.321 9.999,-7.01 25.9,-5.288c4.631,0.502 8.83,-1.125 8.575,1.416c-0.037,0.373 -1.469,2.652 -5.24,0.548c-1.614,-0.9 -4.87,3.817 -2.023,18.638c0.723,3.762 3.454,12.377 3.791,13.442c1.448,4.569 -0.61,-2.925 2.922,-15.057c1.918,-6.589 6.807,-16.718 13.321,-18.804c9.205,-2.948 10.245,2.659 7.226,5.1c-2.45,1.98 -5.506,-2.02 -3.168,-3.905c1.71,-1.379 4.583,1.237 3.113,-0.404c-1.164,-1.3 -4.586,-0.948 -6.93,1.401c-0.801,0.803 -4.503,3.248 -9.994,15.646c-3.708,8.373 -5.938,17.566 -4.369,19.388c0.684,0.794 2.671,2.259 2.436,5.066c-0.209,2.502 -4.561,3.513 -4.477,-2.408c0.025,-1.763 0.532,-2.633 -0.39,-3.833c-1.847,-2.403 -9.444,-22.326 -6.192,-30.961c0.685,-1.395 -0.475,-0.256 -0.506,-0.224Z" style="fill:#cc4d27;fill-opacity:0.99;"/><path d="M420.374,309.74c0.031,-0.032 1.191,-1.171 0.506,0.224c-0.068,-0.069 0.145,-0.21 0.077,-0.279c0,0 -0.536,0.05 -0.583,0.055Z" style="fill:#ca4c26;fill-opacity:0.27;"/><path d="M366.06,313.39c0.197,0.365 0.147,0.408 -0.175,0.655c0.134,-0.154 0.091,-0.171 0.175,-0.655Z" style="fill:#98391d;fill-opacity:0.27;"/></g><g><path d="M336.092,305.255c0.117,0.212 0.241,0.233 0.049,0.395c-0.236,0.199 -0.989,1.014 -1.072,1.105c-1.621,1.757 -1.479,1.849 -3.128,3.59c-0.205,0.217 -1.453,1.534 -2.517,2.756c-7.723,8.864 -7.705,8.875 -8.284,9.482c-1.374,1.441 -2.025,1.59 -1.285,2.704c16.785,25.288 17.335,25.647 16.765,25.758c-0.397,0.077 -13.487,-0.005 -14.66,-0.013c-1.088,-0.007 -0.971,-0.304 -1.72,-1.449c-8.951,-13.679 -8.525,-13.932 -9.429,-15.026c-0.226,-0.273 -0.334,-0.029 -3.108,3.158c-0.904,1.039 0.202,12.921 -0.619,13.3c-0.057,0.026 -12.663,0.032 -12.729,-0.003c-0.267,-0.141 -0.266,-1.334 -0.266,-1.452c0.029,-43.831 -0.206,-44.056 0.238,-44.226c0.657,-0.251 11.52,-0.058 12.522,-0.04c0.624,0.011 0.52,0.377 0.52,10.906c-0,3.915 -0.207,5.61 0.523,4.415c0.896,-1.468 2.112,-2.746 2.319,-2.964c0.02,-0.021 9.367,-11.594 9.446,-11.683c1.001,-1.128 1.3,-0.515 16.434,-0.713Z" style="fill:#cc4d27;fill-opacity:1;"/><path d="M143.051,330.127c-0.691,-5.433 1.062,-13.505 5.725,-18.394c12.137,-12.724 27.645,-6.461 31.283,-3.835c1.87,1.35 1.793,1.409 3.601,2.868c1.157,0.933 0.202,1.117 -0.875,2.337c-0.531,0.601 -4.956,5.619 -6.752,7.41c-0.799,0.797 -3.068,-2.689 -6.023,-3.239c-7.805,-1.452 -11.057,3.257 -11.264,3.473c-3.926,4.104 -2.638,11.846 -0.373,14.335c0.43,0.473 3.528,3.877 6.877,4.063c3.541,0.196 6.297,0.25 10.633,-3.897c0.675,-0.646 0.781,-0.049 3.291,2.539c0.463,0.478 5.694,5.87 5.754,6.008c0.089,0.201 0.164,0.37 -1.693,2.16c-6.814,6.568 -18.574,8.549 -28.597,3.202c-6.211,-3.313 -11.285,-10.347 -11.587,-19.03Z" style="fill:#cc4d27;fill-opacity:1;"/><path d="M247.211,329.407c-0.057,-0.655 -0.337,-3.851 0.737,-8.191c4.405,-17.809 25.855,-20.747 36.273,-13.321c3.309,2.359 3.15,2.559 3.454,2.738c1.345,0.797 0.467,1.153 -0.486,2.233c-0.549,0.622 -4.959,5.618 -6.989,7.654c-0.121,0.121 -0.433,0.434 -1.902,-0.978c-2.781,-2.675 -9.232,-4.185 -14.352,0.1c-4.171,3.492 -4.149,10.242 -2.562,13.407c4.175,8.323 12.437,6.314 15.18,4.922c3.063,-1.554 3.401,-3.779 4.585,-2.559c0.651,0.671 7.798,8.034 8.07,8.461c0.148,0.233 0.052,0.291 -2.304,2.562c-4.616,4.451 -11.639,5.525 -12.712,5.578c-8.635,0.43 -9.625,-0.467 -13.959,-2.126c-2.871,-1.099 -6.194,-4.17 -6.506,-4.591c-1.126,-1.52 -6.29,-5.784 -6.528,-15.89Z" style="fill:#cc4d27;fill-opacity:1;"/><path d="M200.76,305.292c0.195,-0.002 2.403,-0.02 2.419,0.344c0.115,2.628 -0.195,32.597 0.171,32.939c0.384,0.358 18.407,-0.093 18.707,0.243c0.078,0.088 0.255,11.68 -0.084,12.03c-0.44,0.456 -0.585,0.166 -30.574,0.184c-0.119,0 -1.326,0.001 -1.466,-0.263c-0.001,-0.003 -0.126,-45.097 0.067,-45.335c0.139,-0.171 0.195,-0.142 10.759,-0.142Z" style="fill:#cc4d27;fill-opacity:1;"/><path d="M238.92,305.292c0.479,0.004 0.959,-0.02 1.438,-0.016c0.634,0.005 0.586,0.435 0.587,0.6c0.011,1.622 -0.022,43.261 0.017,44.403c0.022,0.664 -0.188,0.751 -0.601,0.753c-0.999,0.006 -12.085,0.068 -12.486,-0.012c-0.374,-0.075 -0.331,-0.284 -0.331,-30.741c-0,-14.568 -0.002,-14.562 0.013,-14.661c0.06,-0.39 0.276,-0.327 11.363,-0.327Z" style="fill:#cc4d27;fill-opacity:1;"/></g></svg>